# xmcd
#
# Track frame offsets:
#	150
#	12765
#	29807
#	45987
#	61101
#	76005
#	87284
#	104961
#	122556
#	139640
#	154793
#	173757
#	188457
#	206457
#	222251
#
# Disc length: 3228 seconds
#
# Revision: 1
# Processed by: cddbd v1.5.2PL0 Copyright (c) Steve Scherf et al.
# Submitted via: audiograbber 1.83.01
#
DISCID=bd0c9a0f
DTITLE=Matthias M. - That's My Music
DYEAR=1900
DGENRE=Country
TTITLE0=Papa Loved Mama
TTITLE1=If Tomorrow Never Comes
TTITLE2=Rodeo
TTITLE3=Standing Outside The Fire
TTITLE4=Unanswered Prayers
TTITLE5=Two Of A Kind, Workin' On A Full House
TTITLE6=The River
TTITLE7=She's Like The Wind
TTITLE8=Two Pina Coladas
TTITLE9=Mandy
TTITLE10=Beautiful In My Eyes
TTITLE11=The Thunder Rolls
TTITLE12=The Dance
TTITLE13=What She's Doing Now
TTITLE14=The American Trilogie (Traditional)
EXTD=Matthias M.: Germany's best Garth-Brooks-Alias! 
EXTT0=
EXTT1=
EXTT2=
EXTT3=
EXTT4=
EXTT5=
EXTT6=
EXTT7=
EXTT8=
EXTT9=
EXTT10=
EXTT11=
EXTT12=
EXTT13=
EXTT14=
PLAYORDER=
